<!-- <svg width="32" height="22" viewBox="0 0 34 24" fill="none" xmlns="http://www.w3.org/2000/svg">
<path fill-rule="evenodd" clip-rule="evenodd" d="M0.00183571 0.3125V7.59485C0.00183571 7.59485 -0.141502 9.88783 2.10473 11.8288L14.5469 23.6837L21.0172 23.6005L19.9794 10.8126L17.5261 7.93369L9.81536 0.3125H0.00183571Z" fill="currentColor"/>
<path opacity="0.06" fill-rule="evenodd" clip-rule="evenodd" d="M8.17969 17.7762L13.3027 3.75173L17.589 8.02192L8.17969 17.7762Z" fill="#161616"/>
<path opacity="0.06" fill-rule="evenodd" clip-rule="evenodd" d="M8.58203 17.2248L14.8129 5.24231L17.6211 8.05247L8.58203 17.2248Z" fill="#161616"/>
<path fill-rule="evenodd" clip-rule="evenodd" d="M8.25781 17.6914L25.1339 0.3125H33.9991V7.62657C33.9991 7.62657 33.8144 10.0645 32.5743 11.3686L21.0179 23.6875H14.5487L8.25781 17.6914Z" fill="currentColor"/>
</svg> -->
<svg xmlns="http://www.w3.org/2000/svg" width="24" height="24" viewBox="0 0 24 24" fill="none" stroke="currentColor" stroke-width="2" stroke-linecap="round" stroke-linejoin="round" class="feather feather-aperture"><circle cx="12" cy="12" r="10"></circle><line x1="14.31" y1="8" x2="20.05" y2="17.94"></line><line x1="9.69" y1="8" x2="21.17" y2="8"></line><line x1="7.38" y1="12" x2="13.12" y2="2.06"></line><line x1="9.69" y1="16" x2="3.95" y2="6.06"></line><line x1="14.31" y1="16" x2="2.83" y2="16"></line><line x1="16.62" y1="12" x2="10.88" y2="21.94"></line></svg>